<svg width="1280" height="832" viewBox="0 0 1280 832" fill="none" xmlns="http://www.w3.org/2000/svg">
<rect width="1280" height="832" fill="#EEB999"/>
<path d="M321.929 419.63V689H247.495V512.491C235.451 521.645 223.768 529.052 212.446 534.713C201.245 540.374 187.153 545.794 170.171 550.973V490.631C195.223 482.561 214.674 472.866 228.525 461.544C242.376 450.222 253.216 436.251 261.045 419.63H321.929Z" fill="#054B25"/>
<rect x="701.555" y="131" width="157.685" height="226" transform="rotate(11.37 701.555 131)" fill="#F6F6F6"/>
<rect x="551.555" y="88" width="157.685" height="226" transform="rotate(11.37 551.555 88)" fill="#016332"/>
<rect x="528.478" y="108.366" width="20.2" height="570.359" transform="rotate(11.3736 528.478 108.366)" fill="#2A112D"/>
<path d="M391.428 629.562L464.597 620.348C466.524 630.585 469.776 637.812 474.353 642.027C478.929 646.243 484.53 648.351 491.154 648.351C502.958 648.351 512.172 642.389 518.796 630.465C523.614 621.673 527.227 603.064 529.636 574.64C520.843 583.673 511.81 590.297 502.536 594.513C493.262 598.728 482.543 600.836 470.378 600.836C446.651 600.836 426.597 592.405 410.217 575.543C393.957 558.681 385.827 537.363 385.827 511.588C385.827 494.003 389.982 477.984 398.293 463.531C406.604 449.078 418.046 438.178 432.619 430.831C447.193 423.364 465.5 419.63 487.541 419.63C514.038 419.63 535.297 424.207 551.315 433.36C567.334 442.394 580.101 456.847 589.616 476.72C599.252 496.472 604.069 522.608 604.069 555.128C604.069 602.944 594.012 637.993 573.898 660.274C553.785 682.436 525.902 693.517 490.251 693.517C469.174 693.517 452.552 691.108 440.388 686.29C428.223 681.352 418.106 674.186 410.036 664.791C401.966 655.396 395.764 643.653 391.428 629.562ZM526.926 511.407C526.926 497.075 523.312 485.873 516.086 477.804C508.859 469.614 500.067 465.519 489.709 465.519C479.953 465.519 471.823 469.192 465.319 476.539C458.936 483.886 455.744 494.907 455.744 509.601C455.744 524.415 459.056 535.737 465.681 543.565C472.425 551.394 480.796 555.309 490.793 555.309C501.151 555.309 509.763 551.515 516.628 543.927C523.493 536.339 526.926 525.499 526.926 511.407Z" fill="#F6F6F6"/>
<path d="M1050.64 639.498H916.588V578.976L1050.64 419.63H1114.78V582.408H1148.02V639.498H1114.78V689H1050.64V639.498ZM1050.64 582.408V499.122L979.82 582.408H1050.64Z" fill="#F6F6F6"/>
<path d="M684.985 424.146H859.688V482.862H741.353L735.029 522.608C743.219 518.754 751.289 515.864 759.238 513.937C767.308 512.009 775.257 511.046 783.086 511.046C809.583 511.046 831.082 519.055 847.583 535.074C864.084 551.093 872.334 571.267 872.334 595.597C872.334 612.7 868.058 629.14 859.507 644.918C851.076 660.696 839.032 672.74 823.374 681.051C807.837 689.361 787.904 693.517 763.574 693.517C746.11 693.517 731.115 691.891 718.589 688.639C706.183 685.266 695.584 680.328 686.792 673.824C678.12 667.2 671.074 659.732 665.654 651.422C660.234 643.111 655.718 632.753 652.104 620.348L726.538 612.218C728.345 624.142 732.56 633.235 739.185 639.498C745.809 645.641 753.698 648.712 762.852 648.712C773.089 648.712 781.52 644.858 788.145 637.149C794.889 629.321 798.262 617.698 798.262 602.281C798.262 586.503 794.889 574.941 788.145 567.594C781.4 560.247 772.427 556.573 761.226 556.573C754.119 556.573 747.254 558.32 740.63 561.812C735.692 564.342 730.272 568.919 724.37 575.543L661.68 566.51L684.985 424.146Z" fill="#F6F6F6"/>
<path d="M708 304.5C695.905 307.576 683.88 311.028 671.835 307.766C659.789 304.504 648.79 298.187 639.9 289.428C631.011 280.669 624.534 269.764 621.094 257.768C617.655 245.771 617.37 233.09 620.268 220.952C623.166 208.813 629.148 197.629 637.636 188.48C646.123 179.331 656.828 172.527 668.715 168.728C680.602 164.929 693.28 167.469 705.5 170C717.72 172.531 722.099 180.272 731.5 188.48C724.585 182.442 710.989 182.362 702 180.5C693.011 178.638 683.295 184.192 674.551 186.986C665.806 189.781 657.931 194.786 651.688 201.516C645.445 208.246 641.044 216.474 638.913 225.403C636.781 234.332 636.99 243.66 639.52 252.485C642.05 261.309 646.815 269.332 653.354 275.775C659.893 282.218 667.985 286.865 676.845 289.264C685.706 291.664 712.103 299.263 721 297L708 304.5Z" fill="#D31131" fill-opacity="0.85098"/>
<path d="M695.5 204L703.021 227.148H727.36L707.67 241.454L715.191 264.602L695.5 250.296L675.809 264.602L683.33 241.454L663.64 227.148H687.979L695.5 204Z" fill="#D31131"/>
</svg>
